<svg width="58" height="58" viewBox="0 0 58 58" fill="none" xmlns="http://www.w3.org/2000/svg">
<rect width="58" height="58" rx="28" fill="#F7F7F7"/>
<g clip-path="url(#clip0_36_202)">
<path d="M19.25 22.15C19.25 23.6883 19.8611 25.1635 20.9488 26.2512C22.0365 27.3389 23.5117 27.95 25.05 27.95C26.5883 27.95 28.0635 27.3389 29.1512 26.2512C30.2389 25.1635 30.85 23.6883 30.85 22.15C30.85 20.6118 30.2389 19.1365 29.1512 18.0488C28.0635 16.9611 26.5883 16.35 25.05 16.35C23.5117 16.35 22.0365 16.9611 20.9488 18.0488C19.8611 19.1365 19.25 20.6118 19.25 22.15Z" stroke="#222222" stroke-width="2" stroke-linecap="round" stroke-linejoin="round"/>
<path d="M16.35 42.45V39.55C16.35 38.0117 16.961 36.5365 18.0488 35.4488C19.1365 34.3611 20.6117 33.75 22.15 33.75H27.95C29.4882 33.75 30.9635 34.3611 32.0512 35.4488C33.1389 36.5365 33.75 38.0117 33.75 39.55V42.45" stroke="#222222" stroke-width="2" stroke-linecap="round" stroke-linejoin="round"/>
<path d="M35.2 16.5385C36.4476 16.8579 37.5534 17.5835 38.343 18.6008C39.1327 19.6182 39.5613 20.8694 39.5613 22.1572C39.5613 23.4451 39.1327 24.6963 38.343 25.7136C37.5534 26.731 36.4476 27.4566 35.2 27.776" stroke="#222222" stroke-width="2" stroke-linecap="round" stroke-linejoin="round"/>
<path d="M42.45 42.45V39.55C42.4426 38.2699 42.012 37.0282 41.2251 36.0184C40.4383 35.0086 39.3395 34.2875 38.1 33.9675" stroke="#222222" stroke-width="2" stroke-linecap="round" stroke-linejoin="round"/>
</g>
<defs>
<clipPath id="clip0_36_202">
<rect width="34.8" height="34.8" fill="white" transform="translate(12 12)"/>
</clipPath>
</defs>
</svg>
