<svg width="22" height="22" viewBox="0 0 22 22" fill="none" xmlns="http://www.w3.org/2000/svg">
<path d="M20 11C20.552 11 21.005 10.551 20.95 10.002C20.7195 7.70618 19.7021 5.56071 18.0703 3.92933C16.4386 2.29795 14.2929 1.28105 11.997 1.05101C11.447 0.996011 10.999 1.44901 10.999 2.00101V10.001C10.999 10.2662 11.1044 10.5206 11.2919 10.7081C11.4795 10.8957 11.7338 11.001 11.999 11.001L20 11Z" stroke="#222222" stroke-width="2" stroke-linecap="round" stroke-linejoin="round"/>
<path d="M20.2099 14.89C19.5737 16.3945 18.5787 17.7202 17.3118 18.7513C16.0449 19.7824 14.5447 20.4874 12.9424 20.8048C11.34 21.1221 9.68434 21.0421 8.12006 20.5718C6.55578 20.1014 5.13054 19.2551 3.96893 18.1066C2.80733 16.9582 1.94473 15.5427 1.45655 13.9839C0.968371 12.4251 0.869476 10.7705 1.16851 9.16462C1.46755 7.55877 2.15541 6.05061 3.17196 4.77202C4.18851 3.49342 5.5028 2.4833 6.99992 1.82999" stroke="#222222" stroke-width="2" stroke-linecap="round" stroke-linejoin="round"/>
</svg>
