<svg width="24" height="24" viewBox="0 0 24 24" fill="none" xmlns="http://www.w3.org/2000/svg">
<path d="M5.46795 12.804C4.79361 12.7617 4.11755 12.8527 3.47836 13.0717C2.83917 13.2906 2.24937 13.6334 1.74264 14.0803C0.719258 14.9829 0.096349 16.2551 0.0109492 17.617C-0.0744505 18.9789 0.384655 20.3189 1.28727 21.3423C2.18988 22.3657 3.46206 22.9886 4.82395 23.074C6.18584 23.1594 7.52587 22.7003 8.54925 21.7977C9.57264 20.8951 10.1955 19.6229 10.2809 18.261C10.3663 16.8991 9.90724 15.5591 9.00463 14.5357C8.10202 13.5123 6.82984 12.8894 5.46795 12.804ZM23.3089 15.366L16.4499 3.484C15.767 2.3022 14.6426 1.44009 13.324 1.08733C12.0054 0.734576 10.6008 0.920068 9.41895 1.603C8.23714 2.28593 7.37504 3.41036 7.02228 4.72893C6.66953 6.0475 6.85502 7.4522 7.53795 8.634L14.3979 20.512C15.0809 21.6938 16.205 22.5561 17.5233 22.9096C18.8417 23.263 20.2464 23.0787 21.4289 22.397C22.0142 22.0589 22.5271 21.6088 22.9383 21.0725C23.3496 20.5361 23.6511 19.924 23.8258 19.2711C24.0005 18.6182 24.0448 17.9373 23.9563 17.2672C23.8678 16.5972 23.6472 15.9512 23.3089 15.366Z" fill="white"/>
</svg>
