<svg width="58" height="58" viewBox="0 0 58 58" fill="none" xmlns="http://www.w3.org/2000/svg">
<rect width="58" height="58" rx="28" fill="#F7F7F7"/>
<path d="M14 30.05V28.9625C14 28.0972 14.3437 27.2674 14.9556 26.6556C15.5674 26.0437 16.3972 25.7 17.2625 25.7H39.0125C39.8778 25.7 40.7076 26.0437 41.3194 26.6556C41.9313 27.2674 42.275 28.0972 42.275 28.9625V30.05M29.6745 20.712L26.6005 17.638C26.3986 17.4358 26.1587 17.2754 25.8948 17.1659C25.6308 17.0564 25.3478 17.0001 25.062 17H17.2625C16.3972 17 15.5674 17.3437 14.9556 17.9556C14.3437 18.5674 14 19.3972 14 20.2625V37.6625C14 38.5278 14.3437 39.3576 14.9556 39.9694C15.5674 40.5813 16.3972 40.925 17.2625 40.925H39.0125C39.8778 40.925 40.7076 40.5813 41.3194 39.9694C41.9313 39.3576 42.275 38.5278 42.275 37.6625V24.6125C42.275 23.7472 41.9313 22.9174 41.3194 22.3056C40.7076 21.6937 39.8778 21.35 39.0125 21.35H31.2129C30.6363 21.3495 30.082 21.12 29.6745 20.712Z" stroke="black" stroke-width="1.5" stroke-linecap="round" stroke-linejoin="round"/>
</svg>
