<svg width="58" height="58" viewBox="0 0 58 58" fill="none" xmlns="http://www.w3.org/2000/svg">
<rect width="58" height="58" rx="28" fill="#F7F7F7"/>
<path d="M20.3 14.5L15.95 20.3V40.6C15.95 41.3691 16.2555 42.1068 16.7994 42.6506C17.3433 43.1945 18.0809 43.5 18.85 43.5H39.15C39.9191 43.5 40.6568 43.1945 41.2006 42.6506C41.7445 42.1068 42.05 41.3691 42.05 40.6V20.3L37.7 14.5H20.3Z" stroke="#222222" stroke-width="2" stroke-linecap="round" stroke-linejoin="round"/>
<path d="M15.95 20.3H42.05" stroke="#222222" stroke-width="2" stroke-linecap="round" stroke-linejoin="round"/>
<path d="M34.8 26.1C34.8 27.6383 34.1889 29.1135 33.1012 30.2012C32.0135 31.2889 30.5383 31.9 29 31.9C27.4618 31.9 25.9865 31.2889 24.8988 30.2012C23.8111 29.1135 23.2 27.6383 23.2 26.1" stroke="#222222" stroke-width="2" stroke-linecap="round" stroke-linejoin="round"/>
</svg>
