<svg width="46" height="46" viewBox="0 0 46 46" fill="none" xmlns="http://www.w3.org/2000/svg">
<rect width="46" height="46" rx="23" fill="#222222"/>
<g clip-path="url(#clip0_106_480)">
<path d="M20 14H23L25 16H30C30.5304 16 31.0391 16.2107 31.4142 16.5858C31.7893 16.9609 32 17.4696 32 18V25C32 25.5304 31.7893 26.0391 31.4142 26.4142C31.0391 26.7893 30.5304 27 30 27H20C19.4696 27 18.9609 26.7893 18.5858 26.4142C18.2107 26.0391 18 25.5304 18 25V16C18 15.4696 18.2107 14.9609 18.5858 14.5858C18.9609 14.2107 19.4696 14 20 14Z" stroke="white" stroke-width="2" stroke-linecap="round" stroke-linejoin="round"/>
<path d="M28 27V29C28 29.5304 27.7893 30.0391 27.4142 30.4142C27.0391 30.7893 26.5304 31 26 31H16C15.4696 31 14.9609 30.7893 14.5858 30.4142C14.2107 30.0391 14 29.5304 14 29V20C14 19.4696 14.2107 18.9609 14.5858 18.5858C14.9609 18.2107 15.4696 18 16 18H18" stroke="white" stroke-width="2" stroke-linecap="round" stroke-linejoin="round"/>
</g>
<defs>
<clipPath id="clip0_106_480">
<rect width="24" height="24" fill="white" transform="translate(11 11)"/>
</clipPath>
</defs>
</svg>
